<?xml version="1.0" encoding="UTF-8"?>
<svg id="_layer2" data-name="layer 2" xmlns="http://www.w3.org/2000/svg" viewBox="0 0 1235.15 110.35">
  <defs>
    <style>
      .cls-1 {
        fill: #fff;
      }
    </style>
  </defs>
  <g id="_layer_1-2" data-name="layer 1">
    <g>
      <path class="cls-1" d="M48.98,27.9c-.87,0-1.49.62-1.49,1.61v6.2c0,.62.62,1.49,1.49,1.49h57.41c.87,0,1.49.62,1.49,1.61v55.67c0,.99-.25,2.23-.87,2.85l-11.78,11.78c-.62.62-1.86,1.24-2.85,1.24H1.61c-.99,0-1.61-.99-1.61-1.86v-38.44c0-.62.62-1.49,1.61-1.49h52.32c.99,0,1.61-.62,1.61-1.61v-6.2c0-.87-.62-1.86-1.61-1.86H1.61c-.99,0-1.61-.62-1.61-1.49V15.5c0-.87.62-2.11,1.24-2.48L13.02,1.24c.62-.62,1.86-1.24,2.85-1.24h90.51c.87,0,1.49.99,1.49,1.61v24.8c0,.87-.62,1.49-1.49,1.49h-57.41Z"/>
      <path class="cls-1" d="M169.63,68.2c-.62,0-1.61.99-1.61,1.61v4.96c0,.62.99,1.49,1.61,1.49h41.79c.99,0,1.61.62,1.61,1.61v30.63c0,.87-.62,1.86-1.61,1.86h-73.78c-.87,0-2.11-.62-2.73-1.24l-9.3-9.3c-.62-.62-1.24-1.86-1.24-2.85V21.7c0-.87.87-1.86,1.49-1.86h74.15c.87,0,2.11.62,2.48,1.24l9.55,9.3c.62.62.99,1.86.99,2.85v33.48c0,.87-.62,1.49-1.61,1.49h-41.79ZM169.63,42.78c-.62,0-1.61.62-1.61,1.61v4.34c0,.87.99,1.49,1.61,1.49h12.65c.99,0,1.61-.62,1.61-1.49v-4.34c0-.99-.62-1.61-1.61-1.61h-12.65Z"/>
      <path class="cls-1" d="M275.65.37c.62,0,1.61.62,1.61,1.49v16.49c0,.87-.99,1.86-1.61,1.86h-44.02c-.62,0-1.49-.99-1.49-1.86V1.86c0-.87.87-1.49,1.49-1.49h44.02ZM230.14,31.62c0-.87.87-1.49,1.49-1.49h44.02c.62,0,1.61.62,1.61,1.49v76.88c0,.87-.99,1.86-1.61,1.86h-44.02c-.62,0-1.49-.99-1.49-1.86V31.62Z"/>
      <path class="cls-1" d="M381.05,19.84c.99,0,1.61.99,1.61,1.61v75.51c0,.99-.37,2.23-.99,2.85l-9.55,9.3c-.62.62-1.61.87-2.48.87h-74.15c-.62,0-1.49-.62-1.49-1.49v-30.63c0-.99.87-1.61,1.49-1.61h42.53c.87,0,1.49-.87,1.49-1.49v-4.96c0-.99-.62-1.61-1.49-1.61h-42.53c-.62,0-1.49-.62-1.49-1.49V21.45c0-.62.87-1.61,1.49-1.61h26.41c.87,0,1.49.99,1.49,1.61v22.57c0,.99.62,1.61,1.61,1.61h13.02c.87,0,1.49-.62,1.49-1.61v-22.57c0-.62.99-1.61,1.61-1.61h39.93Z"/>
      <path class="cls-1" d="M488.43,108.49c0,.87-.62,1.86-1.61,1.86h-85.55c-.62,0-1.49-.99-1.49-1.86v-45.26c0-.62.62-1.86,1.24-2.48l9.3-9.3c.62-.62,1.86-1.24,2.73-1.24h30.13c.87,0,1.49-.62,1.49-1.49v-4.34c0-.99-.62-1.61-1.49-1.61h-41.91c-.62,0-1.49-.62-1.49-1.49v-19.59c0-.87.87-1.86,1.49-1.86h74.15c.62,0,1.86.62,2.48,1.24l9.55,9.3c.37.62.99,1.86.99,2.85v75.26ZM429.16,74.77c0,.62.62,1.49,1.61,1.49h12.4c.87,0,1.49-.87,1.49-1.49v-4.96c0-.62-.62-1.61-1.49-1.61h-12.4c-.99,0-1.61.99-1.61,1.61v4.96Z"/>
      <path class="cls-1" d="M622.97,109.98h-54.31c-.87,0-1.49-.62-1.49-1.49V1.61c0-.62.62-1.61,1.49-1.61h54.31c.62,0,1.49.99,1.49,1.61v106.88c0,.87-.87,1.49-1.49,1.49Z"/>
      <path class="cls-1" d="M730.23,58.9c0,.99-.87,1.61-1.49,1.61h-41.54c-.99,0-1.61.87-1.61,1.49v46.5c0,.87-.87,1.49-1.49,1.49h-41.29c-.62,0-1.49-.62-1.49-1.49V21.45c0-.62.87-1.61,1.49-1.61h41.29c.62,0,1.49.99,1.49,1.61v9.3c0,.87.99,1.49,1.61.87l10.54-10.54c.62-.62,1.86-1.24,2.48-1.24h28.52c.62,0,1.49.99,1.49,1.61v37.45Z"/>
      <path class="cls-1" d="M792.6.37c.62,0,1.61.62,1.61,1.49v16.49c0,.87-.99,1.86-1.61,1.86h-44.02c-.62,0-1.49-.99-1.49-1.86V1.86c0-.87.87-1.49,1.49-1.49h44.02ZM747.1,31.62c0-.87.87-1.49,1.49-1.49h44.02c.62,0,1.61.62,1.61,1.49v76.88c0,.87-.99,1.86-1.61,1.86h-44.02c-.62,0-1.49-.99-1.49-1.86V31.62Z"/>
      <path class="cls-1" d="M917.59,30.38c.62.62,1.24,1.86,1.24,2.85v75.26c0,.87-.99,1.49-1.61,1.49h-24.18c-.87,0-1.49-.62-1.49-1.49v-46.5c0-.62-.99-1.49-1.61-1.49h-6.82c-.87,0-1.49.87-1.49,1.49v46.5c0,.87-.62,1.49-1.61,1.49h-16.74c-.62,0-1.49-.62-1.49-1.49v-46.5c0-.62-.62-1.49-1.61-1.49h-6.45c-.99,0-1.61.87-1.61,1.49v46.5c0,.87-.62,1.49-1.49,1.49h-38.44c-.99,0-1.86-.62-1.86-1.49V21.7c0-.87.87-1.49,1.49-1.49h93.62c.99,0,2.23.25,2.85.87l9.3,9.3Z"/>
      <path class="cls-1" d="M1022.62,30.38c.62.62.99,1.86.99,2.85v75.26c0,.87-.62,1.49-1.61,1.49h-73.78c-.87,0-2.11-.25-2.73-.87l-9.3-9.3c-.62-.62-1.24-1.86-1.24-2.85V21.7c0-.87.87-1.49,1.86-1.49h73.78c.87,0,2.11.25,2.73.87l9.3,9.3ZM992.86,72.91c.99,0,1.61-.62,1.61-1.61v-26.91c0-.99-.62-1.61-1.61-1.61h-12.65c-.62,0-1.61.62-1.61,1.61v26.91c0,.99.99,1.61,1.61,1.61h12.65Z"/>
      <path class="cls-1" d="M1127.77,69.81c.99,0,1.61.62,1.61,1.49v37.2c0,.87-.62,1.49-1.61,1.49h-62c-.87,0-2.11-.25-2.73-.87l-9.3-9.3c-.62-.62-.99-1.86-.99-2.85v-52.57c0-.99-.87-1.61-1.49-1.61h-9.05c-.62,0-1.49-.62-1.49-1.49v-19.59c0-.87.87-1.86,1.49-1.86h9.05c.62,0,1.49-.62,1.49-1.49V1.86c0-.87.62-1.86,1.61-1.86h40.54c.62,0,1.61.99,1.61,1.86v16.49c0,.87.62,1.49,1.49,1.49h29.76c.99,0,1.61.99,1.61,1.86v19.59c0,.87-.62,1.49-1.61,1.49h-29.76c-.87,0-1.49.62-1.49,1.61v23.81c0,.99.62,1.61,1.49,1.61h29.76Z"/>
      <path class="cls-1" d="M1234.16,30.38c.62.62.99,1.86.99,2.85v75.26c0,.87-.62,1.49-1.61,1.49h-73.78c-.87,0-2.11-.25-2.73-.87l-9.3-9.3c-.62-.62-1.24-1.86-1.24-2.85V21.7c0-.87.87-1.49,1.86-1.49h73.78c.87,0,2.11.25,2.73.87l9.3,9.3ZM1204.4,72.91c.99,0,1.61-.62,1.61-1.61v-26.91c0-.99-.62-1.61-1.61-1.61h-12.65c-.62,0-1.61.62-1.61,1.61v26.91c0,.99.99,1.61,1.61,1.61h12.65Z"/>
    </g>
  </g>
</svg>